<?xml version="1.0" standalone="no"?>
<!DOCTYPE svg PUBLIC "-//W3C//DTD SVG 20010904//EN"
 "http://www.w3.org/TR/2001/REC-SVG-20010904/DTD/svg10.dtd">
<svg version="1.0" xmlns="http://www.w3.org/2000/svg"
 width="679.000000pt" height="679.000000pt" viewBox="0 0 679.000000 679.000000"
 preserveAspectRatio="xMidYMid meet">
<metadata>
Created by potrace 1.14, written by Peter Selinger 2001-2017
</metadata>
<g transform="translate(0.000000,679.000000) scale(0.100000,-0.100000)"
fill="#000000" stroke="none">
<path d="M4395 6777 c-11 -7 -22 -14 -25 -17 -3 -3 -23 -18 -45 -35 -22 -16
-50 -39 -62 -50 -12 -11 -34 -29 -49 -40 -14 -11 -34 -28 -42 -37 -9 -10 -22
-18 -30 -18 -7 0 -15 -7 -18 -15 -4 -8 -11 -15 -16 -15 -12 0 -73 -50 -61 -50
4 0 -6 -7 -23 -16 -17 -8 -44 -27 -61 -42 -17 -15 -37 -31 -45 -37 -49 -34
-114 -83 -130 -97 -10 -10 -22 -18 -27 -18 -5 0 -11 -4 -13 -8 -4 -11 -186
-132 -198 -132 -5 0 -10 -4 -10 -9 0 -10 -71 -56 -82 -53 -5 1 -8 -3 -8 -10 0
-6 -3 -9 -6 -6 -3 3 -17 -5 -31 -18 -14 -13 -28 -22 -30 -20 -3 2 -13 -3 -23
-12 -30 -27 -72 -56 -100 -69 -8 -4 -44 -26 -79 -50 -36 -24 -68 -43 -73 -43
-4 0 -8 -7 -8 -16 0 -8 -4 -12 -10 -9 -5 3 -10 1 -10 -4 0 -6 -4 -10 -9 -8 -5
1 -39 -21 -77 -49 -38 -28 -88 -63 -111 -78 -23 -15 -44 -34 -47 -42 -3 -8
-10 -14 -15 -14 -9 0 -50 -34 -142 -117 -25 -24 -48 -43 -51 -43 -2 0 -40 -35
-84 -77 -98 -94 -206 -189 -211 -185 -2 1 -22 -19 -47 -43 -24 -25 -46 -45
-49 -45 -3 0 -20 -13 -37 -29 -18 -16 -44 -35 -58 -42 -31 -16 -44 -26 -75
-54 -12 -11 -28 -20 -36 -22 -8 -1 -18 -9 -23 -18 -5 -8 -14 -13 -19 -9 -6 3
-21 -6 -34 -20 -13 -14 -28 -26 -33 -26 -6 0 -41 -15 -78 -34 -64 -31 -103
-46 -195 -75 -96 -30 -211 -24 -482 25 -142 26 -232 15 -329 -40 -20 -12 -94
-70 -164 -130 -109 -92 -132 -117 -156 -167 -15 -32 -28 -63 -28 -68 0 -5 -5
-11 -11 -13 -9 -3 -17 -40 -22 -100 -1 -10 -5 -18 -10 -18 -4 0 -5 -5 -1 -11
3 -6 0 -15 -7 -20 -8 -4 -14 -12 -15 -16 0 -4 -4 -16 -8 -25 -4 -9 -8 -22 -10
-30 -1 -7 -4 -18 -8 -23 -3 -6 -5 -25 -4 -43 1 -18 -2 -36 -7 -39 -5 -3 -6
-18 -3 -34 3 -15 1 -31 -5 -34 -5 -4 -7 -25 -4 -48 11 -76 16 -122 16 -141 0
-10 7 -28 15 -40 8 -13 11 -26 7 -29 -3 -4 2 -16 11 -26 10 -11 15 -25 11 -30
-3 -6 -1 -11 5 -11 6 0 9 -4 6 -9 -3 -5 1 -12 10 -15 9 -4 14 -9 11 -13 -4 -3
-2 -12 4 -20 6 -7 9 -13 5 -13 -3 0 2 -9 12 -19 29 -33 42 -50 42 -56 0 -3 4
-11 10 -18 5 -7 25 -30 42 -52 18 -21 48 -53 67 -70 19 -16 47 -42 63 -58 15
-15 30 -27 34 -27 6 0 41 -31 100 -87 18 -18 38 -33 44 -33 5 0 10 -4 10 -10
0 -5 3 -9 8 -7 7 2 23 -9 63 -45 10 -10 23 -18 28 -18 5 0 11 -3 13 -7 1 -5
28 -27 60 -50 31 -23 67 -53 81 -65 14 -13 53 -48 88 -78 122 -104 228 -228
214 -249 -3 -6 -15 -11 -26 -11 -10 0 -19 -5 -19 -11 0 -6 -7 -9 -15 -5 -8 3
-15 1 -15 -3 0 -5 -8 -8 -17 -7 -10 2 -33 -5 -50 -15 -18 -10 -33 -17 -33 -14
0 3 -53 -20 -230 -102 -19 -9 -42 -20 -50 -24 -8 -5 -32 -17 -52 -26 -21 -10
-38 -21 -38 -25 0 -5 -9 -8 -20 -8 -11 0 -20 -4 -20 -9 0 -5 -13 -13 -28 -19
-16 -5 -37 -18 -47 -28 -10 -11 -21 -19 -24 -19 -5 0 -41 -22 -132 -80 -9 -5
-62 -40 -117 -77 -55 -38 -103 -68 -108 -68 -5 0 -15 -9 -22 -21 -7 -12 -16
-18 -19 -15 -3 3 -14 -5 -24 -17 -10 -12 -18 -18 -19 -14 0 5 -21 -9 -47 -31
-27 -21 -57 -44 -69 -50 -11 -6 -40 -36 -64 -67 -42 -55 -44 -59 -46 -136 -1
-43 2 -79 7 -79 4 0 6 -7 3 -15 -4 -8 -1 -15 7 -15 7 0 9 -3 6 -7 -4 -3 -2
-12 4 -20 6 -7 8 -13 4 -13 -4 0 -3 -6 3 -12 21 -28 6 -73 -50 -148 -30 -42
-64 -99 -74 -127 -17 -48 -17 -53 -1 -94 9 -25 17 -52 17 -62 0 -9 4 -17 9
-17 5 0 13 -10 16 -21 8 -23 109 -129 123 -129 8 0 23 -11 69 -50 7 -6 15 -10
18 -10 3 0 7 -1 10 -1 3 -1 8 -2 13 -3 4 -1 25 -12 48 -23 23 -12 53 -23 66
-25 14 -2 32 -9 39 -15 8 -5 25 -13 39 -16 32 -7 208 -65 235 -77 11 -5 45
-20 75 -33 52 -23 117 -61 150 -89 8 -7 17 -13 19 -13 3 0 14 -8 26 -18 30
-27 179 -142 261 -203 40 -30 76 -58 79 -64 3 -5 14 -10 23 -10 10 0 23 -9 30
-20 7 -12 16 -18 21 -15 5 2 14 -2 21 -10 7 -8 18 -15 24 -15 6 0 28 -9 48
-20 148 -79 420 -78 680 4 27 8 48 13 48 10 0 -3 10 1 23 8 12 6 27 13 32 14
6 1 23 5 38 8 16 3 34 10 41 15 7 6 16 8 19 4 4 -3 7 -1 7 6 0 7 4 10 9 6 5
-3 13 0 16 6 4 5 14 8 22 5 9 -4 22 -1 29 5 8 6 14 8 14 5 0 -4 7 -1 15 7 8 9
26 14 40 13 14 -2 25 1 25 7 0 6 3 8 6 4 4 -3 13 0 21 8 8 8 26 17 41 20 15 4
68 20 117 36 50 17 106 34 125 39 97 25 126 33 142 41 19 9 87 27 128 34 14 2
43 9 65 15 22 6 48 11 58 11 9 0 34 7 55 16 41 18 52 21 102 29 19 2 37 10 41
16 4 6 12 7 18 4 6 -4 11 -3 11 2 0 5 12 9 28 9 15 0 45 8 66 18 22 9 49 19
60 21 12 2 41 11 66 19 25 8 99 31 165 50 158 46 218 66 231 76 6 5 13 6 17 3
3 -3 23 0 44 7 21 7 44 12 51 11 6 -2 12 1 12 5 0 7 18 11 73 13 9 1 17 4 17
8 0 4 10 8 23 9 25 3 62 10 62 13 0 1 17 4 39 5 21 2 42 9 47 16 5 8 9 10 9 5
0 -5 6 -4 13 2 7 6 26 10 42 8 17 -1 41 3 55 10 14 6 84 24 155 38 194 38 265
56 320 81 28 13 79 33 115 46 36 12 71 27 78 32 6 5 12 6 12 2 0 -4 6 -3 13 2
6 6 20 9 30 8 9 -2 17 1 17 6 0 6 5 7 10 4 6 -3 10 -1 10 5 0 6 5 8 10 5 6 -3
10 -1 10 5 0 6 5 8 10 5 6 -3 10 -2 10 2 0 5 10 10 23 10 28 2 49 7 63 15 6 4
21 9 35 11 14 3 40 13 59 24 19 10 75 32 123 48 49 16 90 33 93 37 3 4 16 8
30 8 14 0 39 7 55 16 17 8 39 17 48 19 9 2 35 11 57 21 21 9 44 16 51 15 7 -1
29 6 50 15 21 9 47 18 58 19 11 1 30 7 43 14 12 6 22 9 22 5 0 -3 6 -1 13 5 8
6 17 8 20 4 4 -3 7 -1 7 5 0 6 8 11 18 11 21 0 44 5 57 13 6 3 37 13 70 22 33
9 92 25 130 36 39 11 84 23 100 26 17 3 60 15 98 26 l67 21 0 2558 0 2559
-1187 -1 c-900 0 -1193 -3 -1208 -12z"/>
</g>
</svg>
